<?xml version="1.0" encoding="utf-8"?>
<!-- Generated by Mocodo 4.2.12 -->
<svg width="477" height="237" viewBox="0 0 477 237" xmlns="http://www.w3.org/2000/svg">
<rect x="0" y="0" width="477" height="237" fill="#f7f7f7" stroke="none" stroke-width="0"/>

<!-- Association ASSOCIER_1 -->
<g>
	<line x1="286" y1="68" x2="165" y2="68" stroke="#de77ae" stroke-width="2"/>
	<line x1="49" y1="68" x2="165" y2="68" stroke="#de77ae" stroke-width="2"/>
	<g>
		<path d="M194 43 a14 14 90 0 1 14 14 V68 h-86 V57 a14 14 90 0 1 14 -14" fill="#f1b6da" stroke="#f1b6da" stroke-width="0"/>
		<path d="M208 68 v11 a14 14 90 0 1 -14 14 H136 a14 14 90 0 1 -14 -14 V68 H86" fill="#fde0ef" stroke="#fde0ef" stroke-width="0"/>
		<rect x="122" y="43" width="86" height="50" fill="none" rx="14" stroke="#de77ae" stroke-width="2"/>
		<line x1="122" y1="68" x2="208" y2="68" stroke="#de77ae" stroke-width="1"/>
		<text x="129" y="60.75" fill="#000000" font-family="Verdana" font-size="12">ASSOCIER_</text>
		<text x="129" y="85.8" fill="#000000" font-family="Verdana" font-size="12">Has</text>
	</g>
	<text x="215" y="85" fill="#4d9221" font-family="Verdana" font-size="12">N,N</text>
	<text x="94" y="85" fill="#4d9221" font-family="Verdana" font-size="12">1,N</text>
</g>

<!-- Association ASSOCIER_3 -->
<g>
	<line x1="286" y1="68" x2="415" y2="68" stroke="#de77ae" stroke-width="2"/>
	<line x1="415" y1="177" x2="415" y2="68" stroke="#de77ae" stroke-width="2"/>
	<g>
		<path d="M444 43 a14 14 90 0 1 14 14 V68 h-86 V57 a14 14 90 0 1 14 -14" fill="#f1b6da" stroke="#f1b6da" stroke-width="0"/>
		<path d="M458 68 v11 a14 14 90 0 1 -14 14 H386 a14 14 90 0 1 -14 -14 V68 H86" fill="#fde0ef" stroke="#fde0ef" stroke-width="0"/>
		<rect x="372" y="43" width="86" height="50" fill="none" rx="14" stroke="#de77ae" stroke-width="2"/>
		<line x1="372" y1="68" x2="458" y2="68" stroke="#de77ae" stroke-width="1"/>
		<text x="379" y="60.75" fill="#000000" font-family="Verdana" font-size="12">ASSOCIER_</text>
		<text x="379" y="85.8" fill="#000000" font-family="Verdana" font-size="12">Has</text>
	</g>
	<text x="334" y="85" fill="#4d9221" font-family="Verdana" font-size="12">N,N</text>
	<text x="420" y="118" fill="#4d9221" font-family="Verdana" font-size="12">N,N</text>
</g>

<!-- Association ASSOCIER_2 -->
<g>
	<line x1="286" y1="68" x2="286" y2="177" stroke="#de77ae" stroke-width="2"/>
	<line x1="165" y1="177" x2="286" y2="177" stroke="#de77ae" stroke-width="2"/>
	<g>
		<path d="M315 152 a14 14 90 0 1 14 14 V177 h-86 V166 a14 14 90 0 1 14 -14" fill="#f1b6da" stroke="#f1b6da" stroke-width="0"/>
		<path d="M329 177 v11 a14 14 90 0 1 -14 14 H257 a14 14 90 0 1 -14 -14 V177 H86" fill="#fde0ef" stroke="#fde0ef" stroke-width="0"/>
		<rect x="243" y="152" width="86" height="50" fill="none" rx="14" stroke="#de77ae" stroke-width="2"/>
		<line x1="243" y1="177" x2="329" y2="177" stroke="#de77ae" stroke-width="1"/>
		<text x="250" y="169.75" fill="#000000" font-family="Verdana" font-size="12">ASSOCIER_</text>
		<text x="250" y="194.8" fill="#000000" font-family="Verdana" font-size="12">Has</text>
	</g>
	<text x="291" y="144" fill="#4d9221" font-family="Verdana" font-size="12">1,N</text>
	<text x="215" y="194" fill="#4d9221" font-family="Verdana" font-size="12">1,N</text>
</g>

<!-- Entity TYPES -->
<g>
	<g>
		<rect x="9" y="34" width="80" height="25" fill="#b8e186" stroke="none" stroke-width="0" opacity="1"/>
		<rect x="9" y="59" width="80" height="43" fill="#e6f5d0" stroke="none" stroke-width="0" opacity="1"/>
		<rect x="9" y="34" width="80" height="68" fill="none" stroke="#7fbc41" stroke-width="2" opacity="1"/>
		<line x1="9" y1="59" x2="89" y2="59" stroke="#7fbc41" stroke-width="1"/>
	</g>
	<text x="30" y="51.75" fill="#000000" font-family="Verdana" font-size="12">TYPES</text>
	<text x="14" y="76.8" fill="#000000" font-family="Verdana" font-size="12">type_id</text>
	<line x1="14" y1="79" x2="60" y2="79" stroke="#000000" stroke-width="1"/>
	<text x="14" y="93.8" fill="#000000" font-family="Verdana" font-size="12">type_name</text>
</g>

<!-- Entity POKEMON -->
<g>
	<g>
		<rect x="243" y="9" width="86" height="25" fill="#b8e186" stroke="none" stroke-width="0" opacity="1"/>
		<rect x="243" y="34" width="86" height="93" fill="#e6f5d0" stroke="none" stroke-width="0" opacity="1"/>
		<rect x="243" y="9" width="86" height="118" fill="none" stroke="#7fbc41" stroke-width="2" opacity="1"/>
		<line x1="243" y1="34" x2="329" y2="34" stroke="#7fbc41" stroke-width="1"/>
	</g>
	<text x="255" y="26.75" fill="#000000" font-family="Verdana" font-size="12">POKEMON</text>
	<text x="248" y="51.8" fill="#000000" font-family="Verdana" font-size="12">pokemon_id</text>
	<line x1="248" y1="54" x2="323" y2="54" stroke="#000000" stroke-width="1"/>
	<text x="248" y="68.8" fill="#000000" font-family="Verdana" font-size="12">pokedex</text>
	<text x="248" y="85.8" fill="#000000" font-family="Verdana" font-size="12">name</text>
	<text x="248" y="102.8" fill="#000000" font-family="Verdana" font-size="12">height</text>
	<text x="248" y="119.8" fill="#000000" font-family="Verdana" font-size="12">weight</text>
</g>

<!-- Entity ABILITIES -->
<g>
	<g>
		<rect x="120" y="143" width="90" height="25" fill="#b8e186" stroke="none" stroke-width="0" opacity="1"/>
		<rect x="120" y="168" width="90" height="43" fill="#e6f5d0" stroke="none" stroke-width="0" opacity="1"/>
		<rect x="120" y="143" width="90" height="68" fill="none" stroke="#7fbc41" stroke-width="2" opacity="1"/>
		<line x1="120" y1="168" x2="210" y2="168" stroke="#7fbc41" stroke-width="1"/>
	</g>
	<text x="134" y="160.75" fill="#000000" font-family="Verdana" font-size="12">ABILITIES</text>
	<text x="125" y="185.8" fill="#000000" font-family="Verdana" font-size="12">ability_id</text>
	<line x1="125" y1="188" x2="181" y2="188" stroke="#000000" stroke-width="1"/>
	<text x="125" y="202.8" fill="#000000" font-family="Verdana" font-size="12">ability_name</text>
</g>

<!-- Entity MOVES -->
<g>
	<g>
		<rect x="362" y="126" width="106" height="25" fill="#b8e186" stroke="none" stroke-width="0" opacity="1"/>
		<rect x="362" y="151" width="106" height="77" fill="#e6f5d0" stroke="none" stroke-width="0" opacity="1"/>
		<rect x="362" y="126" width="106" height="102" fill="none" stroke="#7fbc41" stroke-width="2" opacity="1"/>
		<line x1="362" y1="151" x2="468" y2="151" stroke="#7fbc41" stroke-width="1"/>
	</g>
	<text x="393" y="143.75" fill="#000000" font-family="Verdana" font-size="12">MOVES</text>
	<text x="367" y="168.8" fill="#000000" font-family="Verdana" font-size="12">move_id</text>
	<line x1="367" y1="171" x2="420" y2="171" stroke="#000000" stroke-width="1"/>
	<text x="367" y="185.8" fill="#000000" font-family="Verdana" font-size="12">move_name</text>
	<text x="367" y="202.8" fill="#000000" font-family="Verdana" font-size="12">move_power</text>
	<text x="367" y="219.8" fill="#000000" font-family="Verdana" font-size="12">move_accuracy</text>
</g>
</svg>